<svg width="246" height="233" viewBox="0 0 246 233" fill="none" xmlns="http://www.w3.org/2000/svg">
<path d="M150.572 44.9873L150.986 45.6348L151.719 45.4014L201.478 29.5156L193.96 79.6514L193.842 80.4443L194.589 80.7334L243.201 99.4941L204.164 133.204L203.549 133.736L203.943 134.447L228.714 179.048L176.373 180.591L175.59 180.613L175.425 181.38L164.764 231.011L123.606 199.605L123 199.143L122.394 199.605L81.2354 231.011L70.5752 181.38L70.4102 180.613L69.627 180.591L17.2852 179.048L42.0566 134.447L42.4512 133.736L41.8359 133.204L2.79785 99.4941L51.4111 80.7334L52.1582 80.4443L52.04 79.6514L44.5215 29.5156L94.2812 45.4014L95.0137 45.6348L95.4277 44.9873L123 1.85645L150.572 44.9873Z" stroke="#333333" stroke-width="2"/>
</svg>
