<svg width="176" height="88" viewBox="0 0 176 88" fill="none" xmlns="http://www.w3.org/2000/svg">
<path d="M88 1C111.074 1 133.202 10.1666 149.518 26.4824C165.598 42.5617 174.733 64.2879 174.994 87H1.00586C1.26661 64.2879 10.4018 42.5614 26.4814 26.4814C42.7971 10.1663 64.9264 1 88 1Z" stroke="black" stroke-width="2"/>
<path d="M88 23.584C105.084 23.584 121.469 30.3707 133.549 42.4512C145.393 54.2952 152.148 70.2778 152.407 87H23.5928C23.8521 70.2778 30.6068 54.2957 42.4512 42.4512C54.5315 30.3713 70.916 23.584 88 23.584Z" stroke="black" stroke-width="2"/>
<path d="M88 49.2832C98.2682 49.2832 108.116 53.3622 115.377 60.623C122.402 67.6476 126.447 77.0942 126.703 87H49.2969C49.5526 77.0943 53.5984 67.6479 60.623 60.623C67.8839 53.3625 77.7318 49.2832 88 49.2832Z" stroke="black" stroke-width="2"/>
</svg>
