<svg width="138" height="140" viewBox="0 0 138 140" fill="none" xmlns="http://www.w3.org/2000/svg">
<path d="M68.999 25.2803C93.4713 25.2804 113.313 45.2514 113.313 69.8916C113.313 94.532 93.4714 114.504 68.999 114.504C44.5266 114.504 24.6846 94.532 24.6846 69.8916C24.6847 45.2513 44.5267 25.2803 68.999 25.2803Z" stroke="#333333" stroke-width="0.594828"/>
<path d="M69 0.297852C106.94 0.297852 137.702 31.4528 137.702 69.8926C137.702 108.332 106.94 139.487 69 139.487C31.0603 139.487 0.298031 108.332 0.297852 69.8926C0.297852 31.4528 31.0602 0.297852 69 0.297852Z" stroke="#333333" stroke-width="0.594828"/>
<path d="M11.558 65.9019C11.1674 65.6355 10.855 65.2613 10.621 64.7795C10.379 64.2882 10.2818 63.7339 10.3296 63.1163C10.3787 62.4813 10.5753 61.919 10.9194 61.4293C11.2641 60.931 11.7263 60.5555 12.3058 60.3027C12.8767 60.0494 13.5274 59.9509 14.2581 60.0074C14.98 60.0632 15.6123 60.2608 16.1548 60.6003C16.6973 60.9397 17.105 61.3825 17.3778 61.9286C17.6512 62.466 17.7634 63.0522 17.7143 63.6871C17.6673 64.296 17.4908 64.8249 17.1848 65.2737C16.8708 65.7132 16.5 66.0389 16.0724 66.2509L20.7825 66.615L20.6907 67.8023L10.1485 66.9874L10.2402 65.8001L11.558 65.9019ZM14.1643 61.2208C13.625 61.1791 13.1469 61.2515 12.73 61.438C12.313 61.6246 11.9857 61.8968 11.7481 62.2547C11.5111 62.6039 11.3754 63.0003 11.3412 63.4439C11.3075 63.8788 11.385 64.2916 11.5735 64.6825C11.7541 65.0639 12.04 65.3835 12.4313 65.6413C12.8146 65.8897 13.2716 66.0344 13.8022 66.0754C14.3414 66.1171 14.8239 66.045 15.2495 65.8591C15.6671 65.6639 15.9988 65.392 16.2445 65.0435C16.4821 64.6856 16.6178 64.2892 16.6514 63.8543C16.6857 63.4107 16.6126 62.9982 16.4321 62.6167C16.2435 62.2259 15.9576 61.9063 15.5743 61.6579C15.1823 61.4089 14.7123 61.2631 14.1643 61.2208Z" fill="#333333"/>
<path d="M8.88913 56.1944L18.4014 58.0087L18.1783 59.1785L8.66602 57.3641L8.88913 56.1944Z" fill="#333333"/>
<path d="M15.0921 55.5873C14.3917 55.3716 13.8226 55.0412 13.3846 54.5959C12.9382 54.1481 12.6449 53.6333 12.5046 53.0516C12.3668 52.4614 12.3916 51.862 12.579 51.2534C12.7639 50.6531 13.0536 50.1717 13.4481 49.8094C13.8427 49.4471 14.2693 49.2179 14.7279 49.1218L13.4772 48.7367L13.8315 47.5861L20.6852 49.6965L20.3309 50.8471L19.0552 50.4543C19.3861 50.8026 19.6156 51.243 19.7438 51.7754C19.8662 52.2969 19.8363 52.8537 19.654 53.4456C19.4665 54.0543 19.147 54.5584 18.6954 54.9579C18.2437 55.3574 17.7033 55.6154 17.074 55.732C16.4448 55.8486 15.7842 55.8004 15.0921 55.5873ZM16.8916 49.788C16.3746 49.6289 15.8923 49.5944 15.4446 49.6848C14.9968 49.7751 14.6177 49.9688 14.3072 50.2657C13.9909 50.5517 13.7673 50.9073 13.6364 51.3325C13.5054 51.7577 13.4861 52.1762 13.5784 52.5881C13.6707 52.9999 13.8765 53.369 14.1958 53.6956C14.5152 54.0221 14.9333 54.265 15.4503 54.4242C15.9756 54.5859 16.4662 54.6229 16.9223 54.5351C17.37 54.4448 17.752 54.2566 18.0683 53.9706C18.3762 53.682 18.5957 53.3251 18.7266 52.8999C18.8575 52.4747 18.8769 52.0562 18.7846 51.6444C18.6866 51.2217 18.4779 50.847 18.1585 50.5205C17.8308 50.1914 17.4085 49.9472 16.8916 49.788Z" fill="#333333"/>
<path d="M16.209 42.0275C16.596 41.2456 17.148 40.7304 17.8649 40.4818C18.574 40.2292 19.3742 40.3236 20.2655 40.7649L24.0536 42.6402L23.531 43.6957L19.8955 41.8959C19.2543 41.5785 18.6863 41.4968 18.1914 41.6509C17.6887 41.8012 17.3 42.1539 17.0252 42.709C16.7465 43.2719 16.6998 43.8086 16.8852 44.3189C17.0745 44.8215 17.5053 45.2392 18.1777 45.5721L21.7312 47.3313L21.2028 48.3985L14.7761 45.2168L15.3044 44.1496L16.2192 44.6025C15.9953 44.2288 15.8825 43.8176 15.8807 43.369C15.8828 42.9125 15.9922 42.4653 16.209 42.0275Z" fill="#333333"/>
<path d="M20.7048 36.4373L24.2288 38.7714C24.5198 38.9641 24.768 39.0395 24.9735 38.9978C25.1718 38.9512 25.3721 38.7752 25.5744 38.4697L26.0586 37.7387L26.8987 38.2951L26.3061 39.1898C25.94 39.7425 25.5381 40.0728 25.1005 40.1806C24.6629 40.2884 24.1531 40.1496 23.5712 39.7642L20.0473 37.4301L19.5342 38.2048L18.7159 37.6628L19.229 36.8882L17.7234 35.891L18.381 34.8981L19.8866 35.8954L20.9199 34.3352L21.7382 34.8772L20.7048 36.4373Z" fill="#333333"/>
<path d="M30.318 34.1609C30.1678 34.3309 29.9819 34.4228 29.7602 34.4365C29.5385 34.4502 29.3427 34.382 29.1727 34.2318C29.0027 34.0816 28.9109 33.8957 28.8972 33.674C28.8835 33.4524 28.9517 33.2565 29.1019 33.0865C29.2463 32.9231 29.4264 32.8378 29.6423 32.8306C29.864 32.8169 30.0598 32.8851 30.2298 33.0353C30.3998 33.1855 30.4916 33.3714 30.5053 33.5931C30.5248 33.8082 30.4624 33.9975 30.318 34.1609Z" fill="#333333"/>
<path d="M31.1879 24.8973C31.1132 24.4304 31.1707 23.9464 31.3602 23.4454C31.551 22.9321 31.8872 22.4807 32.3689 22.0913C32.8641 21.6908 33.4078 21.4475 34.0001 21.3613C34.5991 21.2696 35.1894 21.3476 35.7712 21.5953C36.3474 21.8362 36.8659 22.2415 37.3267 22.8114C37.7819 23.3745 38.0725 23.9697 38.1984 24.5972C38.3243 25.2246 38.2825 25.825 38.0729 26.3984C37.8701 26.9662 37.5211 27.4504 37.0259 27.8508C36.551 28.2348 36.0454 28.4697 35.509 28.5556C34.9739 28.6293 34.4825 28.5835 34.0348 28.4182L37.0051 32.0917L36.0791 32.8404L29.4308 24.6183L30.3569 23.8696L31.1879 24.8973ZM36.3803 23.5766C36.0402 23.156 35.6592 22.8582 35.2373 22.6833C34.8154 22.5084 34.3927 22.4574 33.9694 22.5305C33.5528 22.5981 33.1715 22.7717 32.8255 23.0515C32.4863 23.3257 32.2394 23.6656 32.0849 24.0711C31.9316 24.4643 31.8957 24.8916 31.9771 25.3531C32.0598 25.8023 32.2685 26.2338 32.6031 26.6476C32.9432 27.0682 33.3269 27.3694 33.7543 27.5511C34.1831 27.7205 34.6084 27.7748 35.0305 27.7141C35.4539 27.641 35.8351 27.4673 36.1743 27.1931C36.5203 26.9133 36.7699 26.5768 36.9232 26.1836C37.0778 25.7782 37.1137 25.3508 37.031 24.9016C36.9428 24.4457 36.7259 24.004 36.3803 23.5766Z" fill="#333333"/>
<path d="M36.4369 16.288L41.6353 24.4582L40.6306 25.0975L35.4321 16.9273L36.4369 16.288Z" fill="#333333"/>
<path d="M41.1783 20.3606C40.8556 19.7027 40.7064 19.0616 40.7307 18.4376C40.7511 17.8056 40.9252 17.2393 41.2528 16.7385C41.5884 16.2338 42.042 15.8413 42.6138 15.5609C43.1778 15.2843 43.7269 15.1656 44.2611 15.2048C44.7953 15.244 45.2545 15.3977 45.6387 15.666L45.0625 14.4911L46.1434 13.9609L49.3012 20.3995L48.2203 20.9296L47.6325 19.7312C47.6055 20.2109 47.4419 20.6798 47.1419 21.1379C46.8458 21.5843 46.4197 21.9439 45.8636 22.2167C45.2918 22.4971 44.7057 22.6096 44.1053 22.5543C43.5048 22.499 42.9466 22.2821 42.4306 21.9036C41.9146 21.525 41.4971 21.0107 41.1783 20.3606ZM46.6356 17.6986C46.3975 17.213 46.0921 16.838 45.7196 16.5737C45.347 16.3095 44.9463 16.1659 44.5173 16.1431C44.0922 16.1087 43.68 16.1894 43.2805 16.3853C42.8811 16.5812 42.5629 16.8539 42.3261 17.2032C42.0894 17.5525 41.9614 17.9554 41.9423 18.4117C41.9232 18.8681 42.0328 19.3391 42.2709 19.8247C42.513 20.3182 42.8222 20.701 43.1985 20.9731C43.5711 21.2373 43.9698 21.3867 44.3949 21.4212C44.816 21.4478 45.2264 21.3632 45.6258 21.1672C46.0253 20.9713 46.3434 20.6987 46.5802 20.3493C46.821 19.9883 46.9509 19.5797 46.97 19.1233C46.9853 18.6591 46.8738 18.1842 46.6356 17.6986Z" fill="#333333"/>
<path d="M51.752 11.9041C52.5858 11.6474 53.3394 11.6937 54.013 12.0432C54.684 12.3842 55.1658 13.03 55.4585 13.9806L56.7024 18.0202L55.5768 18.3668L54.383 14.4897C54.1724 13.806 53.841 13.3376 53.3888 13.0843C52.934 12.8227 52.4106 12.7831 51.8186 12.9653C51.2183 13.1502 50.7966 13.4854 50.5536 13.971C50.319 14.4541 50.312 15.0541 50.5328 15.7711L51.6997 19.5607L50.5616 19.9111L48.4512 13.0575L49.5893 12.707L49.8897 13.6825C50.007 13.263 50.2279 12.8983 50.5524 12.5885C50.8852 12.276 51.2851 12.0479 51.752 11.9041Z" fill="#333333"/>
<path d="M58.9559 11.3339L59.6683 15.5003C59.7271 15.8443 59.8421 16.0769 60.0133 16.198C60.183 16.3106 60.4485 16.3361 60.8096 16.2743L61.6739 16.1265L61.8437 17.1198L60.786 17.3006C60.1324 17.4124 59.6165 17.3457 59.2383 17.1006C58.8601 16.8555 58.6121 16.3889 58.4945 15.701L57.7821 11.5346L56.8663 11.6912L56.7009 10.7238L57.6167 10.5672L57.3123 8.78713L58.4862 8.58643L58.7905 10.3665L60.6351 10.0511L60.8005 11.0185L58.9559 11.3339Z" fill="#333333"/>
<path d="M67.1503 16.7816C66.9236 16.7886 66.7294 16.716 66.5675 16.5639C66.4057 16.4118 66.3213 16.2224 66.3143 15.9957C66.3073 15.769 66.3799 15.5747 66.532 15.4129C66.6841 15.2511 66.8735 15.1667 67.1002 15.1597C67.3182 15.1529 67.5038 15.2258 67.6569 15.3781C67.8187 15.5303 67.9031 15.7197 67.9101 15.9464C67.9171 16.1731 67.8445 16.3674 67.6924 16.5292C67.549 16.6907 67.3683 16.7749 67.1503 16.7816Z" fill="#333333"/>
<path d="M74.722 11.0811C75.0119 10.7076 75.4046 10.4189 75.8999 10.2149C76.4051 10.0036 76.9644 9.94068 77.5779 10.0263C78.2086 10.1143 78.7578 10.3451 79.2253 10.7187C79.7016 11.0935 80.048 11.5779 80.2645 12.1718C80.4823 12.7572 80.5406 13.4128 80.4393 14.1386C80.3392 14.8557 80.1031 15.4746 79.7309 15.9952C79.3587 16.5158 78.8917 16.8955 78.3299 17.1342C77.7767 17.3741 77.1847 17.45 76.554 17.362C75.9492 17.2776 75.4322 17.0689 75.003 16.7359C74.5836 16.3955 74.2813 16.0054 74.0961 15.5655L73.443 20.2443L72.2636 20.0796L73.7253 9.6075L74.9047 9.77212L74.722 11.0811ZM79.234 13.9703C79.3087 13.4346 79.2658 12.953 79.1053 12.5254C78.9448 12.0978 78.6932 11.7543 78.3506 11.4951C78.0167 11.2371 77.6294 11.0773 77.1887 11.0158C76.7567 10.9555 76.3398 11.0075 75.9381 11.1716C75.5463 11.3283 75.2097 11.5941 74.9284 11.9688C74.6569 12.3361 74.4844 12.7833 74.4108 13.3104C74.3361 13.8461 74.3783 14.332 74.5377 14.7683C74.7068 15.1971 74.9578 15.5448 75.2905 15.8115C75.6331 16.0707 76.0204 16.2305 76.4525 16.2908C76.8931 16.3523 77.3094 16.3047 77.7012 16.148C78.1029 15.9838 78.4395 15.7181 78.711 15.3508C78.9837 14.9748 79.158 14.5147 79.234 13.9703Z" fill="#333333"/>
<path d="M84.548 9.02137L82.1573 18.4054L81.0033 18.1114L83.394 8.72738L84.548 9.02137Z" fill="#333333"/>
<path d="M84.8271 15.2741C85.0872 14.5889 85.4533 14.0421 85.9257 13.6334C86.4011 13.2167 86.9336 12.9569 87.5232 12.854C88.1209 12.7543 88.7175 12.8174 89.3129 13.0433C89.9002 13.2662 90.362 13.5861 90.6983 14.003C91.0347 14.4199 91.2361 14.8603 91.3027 15.3242L91.767 14.1007L92.8926 14.5279L90.3481 21.2325L89.2225 20.8053L89.6962 19.5574C89.3273 19.8653 88.8732 20.0662 88.3337 20.1601C87.8054 20.2489 87.2517 20.1834 86.6726 19.9636C86.0772 19.7376 85.5946 19.3865 85.2248 18.9102C84.855 18.434 84.632 17.8781 84.5559 17.2427C84.4798 16.6073 84.5702 15.9511 84.8271 15.2741ZM90.4994 17.4408C90.6914 16.9351 90.7566 16.4559 90.695 16.0033C90.6335 15.5507 90.4645 15.16 90.1881 14.8312C89.9229 14.4972 89.5823 14.2513 89.1663 14.0935C88.7504 13.9356 88.3339 13.8895 87.9171 13.9553C87.5002 14.021 87.1186 14.2028 86.7723 14.5006C86.426 14.7984 86.1569 15.2002 85.965 15.7059C85.77 16.2198 85.7017 16.7071 85.7601 17.1678C85.8216 17.6204 85.985 18.0136 86.2502 18.3476C86.5184 18.6733 86.8606 18.9152 87.2766 19.073C87.6925 19.2309 88.109 19.277 88.5258 19.2112C88.9539 19.1404 89.3411 18.9561 89.6875 18.6583C90.0368 18.3523 90.3075 17.9465 90.4994 17.4408Z" fill="#333333"/>
<path d="M98.2294 17.228C98.9854 17.6634 99.465 18.2466 99.6681 18.9777C99.8755 19.7013 99.7311 20.494 99.2347 21.3558L97.1252 25.0186L96.1046 24.4308L98.1292 20.9154C98.4863 20.2955 98.6034 19.7338 98.4807 19.2302C98.3623 18.719 98.0347 18.3089 97.498 17.9997C96.9537 17.6863 96.421 17.606 95.9 17.759C95.3866 17.9163 94.9426 18.32 94.5681 18.9702L92.5892 22.4062L91.5573 21.8119L95.1363 15.5976L96.1683 16.1919L95.6588 17.0764C96.0458 16.8765 96.4633 16.7897 96.9112 16.8161C97.3666 16.8469 97.806 16.9842 98.2294 17.228Z" fill="#333333"/>
<path d="M103.53 22.0725L100.982 25.4448C100.772 25.7232 100.681 25.9662 100.71 26.174C100.744 26.3748 100.907 26.5856 101.199 26.8065L101.899 27.3351L101.291 28.139L100.435 27.4921C99.9064 27.0923 99.6017 26.6707 99.5213 26.2272C99.4409 25.7837 99.6111 25.2836 100.032 24.7268L102.58 21.3546L101.839 20.7944L102.431 20.0114L103.172 20.5715L104.261 19.1308L105.211 19.8488L104.122 21.2895L105.615 22.4178L105.023 23.2008L103.53 22.0725Z" fill="#333333"/>
<path d="M105.172 31.7843C105.011 31.624 104.931 31.4327 104.931 31.2106C104.931 30.9886 105.011 30.7973 105.172 30.6369C105.332 30.4765 105.523 30.3963 105.746 30.3963C105.968 30.3963 106.159 30.4765 106.319 30.6369C106.473 30.7912 106.547 30.9762 106.541 31.1921C106.541 31.4142 106.461 31.6055 106.301 31.7658C106.14 31.9262 105.949 32.0064 105.727 32.0064C105.511 32.0126 105.326 31.9386 105.172 31.7843Z" fill="#333333"/>
<path d="M114.343 33.1992C114.813 33.1536 115.293 33.2409 115.781 33.4611C116.282 33.6834 116.711 34.0469 117.07 34.5518C117.439 35.0709 117.648 35.6287 117.698 36.2251C117.752 36.8287 117.638 37.4131 117.354 37.9783C117.078 38.5385 116.642 39.0309 116.044 39.4554C115.454 39.875 114.842 40.1281 114.208 40.2149C113.574 40.3016 112.977 40.2226 112.418 39.978C111.864 39.7404 111.402 39.362 111.033 38.8429C110.679 38.3452 110.476 37.826 110.424 37.2853C110.383 36.7467 110.46 36.259 110.652 35.8224L106.802 38.5593L106.112 37.5887L114.73 31.4628L115.42 32.4335L114.343 33.1992ZM115.339 38.4635C115.78 38.1501 116.101 37.7883 116.302 37.378C116.502 36.9678 116.579 36.5491 116.533 36.122C116.491 35.702 116.341 35.3107 116.084 34.9481C115.831 34.5925 115.507 34.3251 115.112 34.1457C114.729 33.9683 114.305 33.906 113.839 33.9586C113.386 34.0134 112.942 34.1949 112.508 34.5032C112.067 34.8166 111.743 35.1809 111.535 35.5962C111.339 36.0136 111.259 36.4348 111.293 36.8598C111.34 37.2869 111.49 37.6782 111.742 38.0338C112 38.3964 112.321 38.6664 112.704 38.8438C113.099 39.0232 113.523 39.0855 113.976 39.0308C114.437 38.971 114.891 38.7819 115.339 38.4635Z" fill="#333333"/>
<path d="M122.629 39.0028L114.149 43.6802L113.574 42.6375L122.053 37.9601L122.629 39.0028Z" fill="#333333"/>
<path d="M118.268 43.4756C118.945 43.1952 119.594 43.0868 120.216 43.1506C120.845 43.211 121.399 43.4205 121.878 43.7792C122.361 44.146 122.724 44.6236 122.967 45.2119C123.208 45.7923 123.292 46.3478 123.219 46.8785C123.146 47.4091 122.963 47.8577 122.671 48.2242L123.88 47.7234L124.341 48.8357L117.715 51.5799L117.255 50.4676L118.488 49.9568C118.011 49.8994 117.553 49.7065 117.115 49.3781C116.688 49.0544 116.356 48.6064 116.119 48.0341C115.876 47.4457 115.8 46.8537 115.894 46.2579C115.987 45.6622 116.239 45.1188 116.649 44.6278C117.059 44.1368 117.599 43.7527 118.268 43.4756ZM120.58 49.0905C121.079 48.8835 121.473 48.6025 121.76 48.2474C122.047 47.8923 122.216 47.5014 122.266 47.0747C122.327 46.6528 122.273 46.2362 122.102 45.8252C121.932 45.4141 121.68 45.0794 121.347 44.821C121.013 44.5625 120.619 44.4094 120.165 44.3614C119.711 44.3135 119.234 44.393 118.734 44.6C118.226 44.8103 117.824 45.0947 117.529 45.4531C117.242 45.8082 117.068 46.1967 117.006 46.6187C116.953 47.0373 117.011 47.4522 117.182 47.8632C117.352 48.2743 117.604 48.609 117.938 48.8674C118.283 49.1306 118.682 49.2861 119.137 49.334C119.599 49.3786 120.08 49.2975 120.58 49.0905Z" fill="#333333"/>
<path d="M126.028 54.5036C126.231 55.3522 126.136 56.1013 125.744 56.7509C125.36 57.3986 124.685 57.8378 123.718 58.0686L119.606 59.0497L119.333 57.9041L123.279 56.9625C123.975 56.7965 124.463 56.496 124.745 56.061C125.036 55.6239 125.109 55.1042 124.965 54.5017C124.819 53.8907 124.512 53.4483 124.043 53.1746C123.576 52.9093 122.978 52.8637 122.248 53.0378L118.391 53.9582L118.115 52.7998L125.09 51.1354L125.367 52.2937L124.374 52.5306C124.785 52.6747 125.134 52.9186 125.423 53.2624C125.713 53.6146 125.915 54.0284 126.028 54.5036Z" fill="#333333"/>
<path d="M126.145 61.6504L121.942 62.1057C121.595 62.1433 121.356 62.2438 121.225 62.4073C121.102 62.5698 121.06 62.8331 121.1 63.1974L121.194 64.0691L120.192 64.1777L120.077 63.1108C120.005 62.4516 120.104 61.9408 120.371 61.5783C120.639 61.2159 121.12 60.997 121.814 60.9218L126.016 60.4665L125.916 59.5428L126.892 59.437L126.992 60.3607L128.787 60.1662L128.916 61.3501L127.12 61.5446L127.322 63.4051L126.346 63.5108L126.145 61.6504Z" fill="#333333"/>
<path d="M125.936 74.0669C126.326 74.3333 126.639 74.7075 126.873 75.1893C127.115 75.6805 127.212 76.2349 127.164 76.8525C127.115 77.4875 126.919 78.0498 126.574 78.5394C126.23 79.0378 125.767 79.4133 125.188 79.666C124.617 79.9194 123.966 80.0179 123.236 79.9614C122.514 79.9056 121.881 79.7079 121.339 79.3685C120.796 79.0291 120.389 78.5863 120.116 78.0402C119.843 77.5028 119.73 76.9166 119.779 76.2816C119.826 75.6728 120.003 75.1439 120.309 74.695C120.623 74.2556 120.994 73.9298 121.421 73.7179L116.711 73.3538L116.803 72.1665L127.345 72.9814L127.254 74.1687L125.936 74.0669ZM123.329 78.748C123.869 78.7897 124.347 78.7172 124.764 78.5307C125.181 78.3442 125.508 78.072 125.746 77.7141C125.983 77.3649 126.118 76.9685 126.153 76.5249C126.186 76.09 126.109 75.6771 125.92 75.2863C125.74 74.9048 125.454 74.5852 125.062 74.3275C124.679 74.0791 124.222 73.9344 123.692 73.8934C123.152 73.8517 122.67 73.9238 122.244 74.1096C121.827 74.3049 121.495 74.5767 121.249 74.9252C121.012 75.2831 120.876 75.6795 120.842 76.1144C120.808 76.558 120.881 76.9706 121.062 77.352C121.25 77.7429 121.536 78.0625 121.919 78.3109C122.311 78.5599 122.781 78.7056 123.329 78.748Z" fill="#333333"/>
<path d="M128.605 83.7744L119.092 81.9601L119.315 80.7903L128.828 82.6047L128.605 83.7744Z" fill="#333333"/>
<path d="M122.402 84.3815C123.102 84.5971 123.671 84.9276 124.109 85.3728C124.556 85.8206 124.849 86.3354 124.989 86.9172C125.127 87.5073 125.102 88.1067 124.915 88.7154C124.73 89.3157 124.44 89.797 124.046 90.1593C123.651 90.5217 123.225 90.7509 122.766 90.847L124.017 91.2321L123.662 92.3827L116.809 90.2723L117.163 89.1217L118.439 89.5145C118.108 89.1661 117.878 88.7257 117.75 88.1933C117.628 87.6719 117.658 87.1151 117.84 86.5231C118.027 85.9145 118.347 85.4104 118.798 85.0109C119.25 84.6114 119.79 84.3533 120.42 84.2367C121.049 84.1201 121.71 84.1684 122.402 84.3815ZM120.602 90.1807C121.119 90.3399 121.601 90.3743 122.049 90.284C122.497 90.1936 122.876 90 123.187 89.7031C123.503 89.4171 123.726 89.0615 123.857 88.6363C123.988 88.211 124.008 87.7925 123.915 87.3807C123.823 86.9689 123.617 86.5997 123.298 86.2732C122.979 85.9466 122.56 85.7038 122.043 85.5446C121.518 85.3828 121.028 85.3459 120.571 85.4336C120.124 85.524 119.742 85.7122 119.425 85.9982C119.118 86.2867 118.898 86.6436 118.767 87.0689C118.636 87.4941 118.617 87.9126 118.709 88.3244C118.807 88.7471 119.016 89.1217 119.335 89.4483C119.663 89.7774 120.085 90.0215 120.602 90.1807Z" fill="#333333"/>
<path d="M121.285 97.9413C120.898 98.7231 120.346 99.2384 119.629 99.487C118.92 99.7395 118.12 99.6451 117.228 99.2039L113.44 97.3286L113.963 96.2731L117.598 98.0729C118.239 98.3903 118.807 98.4719 119.302 98.3178C119.805 98.1676 120.194 97.8149 120.469 97.2598C120.747 96.6969 120.794 96.1602 120.609 95.6498C120.419 95.1473 119.988 94.7296 119.316 94.3967L115.763 92.6375L116.291 91.5702L122.718 94.7519L122.189 95.8192L121.275 95.3663C121.498 95.7399 121.611 96.1511 121.613 96.5998C121.611 97.0563 121.502 97.5035 121.285 97.9413Z" fill="#333333"/>
<path d="M116.789 103.531L113.265 101.197C112.974 101.005 112.726 100.929 112.52 100.971C112.322 101.018 112.122 101.194 111.919 101.499L111.435 102.23L110.595 101.674L111.188 100.779C111.554 100.226 111.956 99.8959 112.393 99.7882C112.831 99.6804 113.341 99.8192 113.923 100.205L117.447 102.539L117.96 101.764L118.778 102.306L118.265 103.081L119.77 104.078L119.113 105.071L117.607 104.073L116.574 105.634L115.756 105.092L116.789 103.531Z" fill="#333333"/>
<path d="M107.176 105.808C107.326 105.638 107.512 105.546 107.734 105.532C107.955 105.519 108.151 105.587 108.321 105.737C108.491 105.887 108.583 106.073 108.597 106.295C108.61 106.516 108.542 106.712 108.392 106.882C108.247 107.046 108.067 107.131 107.851 107.138C107.63 107.152 107.434 107.084 107.264 106.933C107.094 106.783 107.002 106.597 106.988 106.376C106.969 106.161 107.031 105.971 107.176 105.808Z" fill="#333333"/>
<path d="M106.306 115.071C106.381 115.538 106.323 116.022 106.134 116.523C105.943 117.037 105.607 117.488 105.125 117.878C104.63 118.278 104.086 118.521 103.494 118.607C102.895 118.699 102.304 118.621 101.723 118.373C101.146 118.133 100.628 117.727 100.167 117.157C99.7118 116.594 99.4212 115.999 99.2953 115.372C99.1694 114.744 99.2113 114.144 99.4209 113.57C99.6236 113.003 99.9726 112.518 100.468 112.118C100.943 111.734 101.448 111.499 101.985 111.413C102.52 111.34 103.011 111.385 103.459 111.551L100.489 107.877L101.415 107.128L108.063 115.35L107.137 116.099L106.306 115.071ZM101.113 116.392C101.454 116.813 101.835 117.111 102.256 117.285C102.678 117.46 103.101 117.511 103.524 117.438C103.941 117.371 104.322 117.197 104.668 116.917C105.007 116.643 105.254 116.303 105.409 115.898C105.562 115.504 105.598 115.077 105.517 114.616C105.434 114.167 105.225 113.735 104.891 113.321C104.551 112.901 104.167 112.599 103.739 112.418C103.311 112.248 102.885 112.194 102.463 112.255C102.04 112.328 101.659 112.501 101.319 112.776C100.973 113.055 100.724 113.392 100.571 113.785C100.416 114.191 100.38 114.618 100.463 115.067C100.551 115.523 100.768 115.965 101.113 116.392Z" fill="#333333"/>
<path d="M101.057 123.681L95.8585 115.511L96.8632 114.871L102.062 123.042L101.057 123.681Z" fill="#333333"/>
<path d="M96.3155 119.608C96.6382 120.266 96.7874 120.907 96.7631 121.531C96.7427 122.163 96.5686 122.729 96.2409 123.23C95.9054 123.735 95.4518 124.127 94.88 124.408C94.316 124.685 93.7669 124.803 93.2327 124.764C92.6984 124.725 92.2392 124.571 91.855 124.303L92.4313 125.478L91.3503 126.008L88.1925 119.569L89.2734 119.039L89.8612 120.238C89.8883 119.758 90.0519 119.289 90.3519 118.831C90.648 118.384 91.074 118.025 91.6302 117.752C92.202 117.472 92.7881 117.359 93.3885 117.414C93.9889 117.47 94.5472 117.687 95.0632 118.065C95.5792 118.444 95.9967 118.958 96.3155 119.608ZM90.8581 122.27C91.0963 122.756 91.4017 123.131 91.7742 123.395C92.1467 123.659 92.5475 123.803 92.9765 123.826C93.4015 123.86 93.8138 123.779 94.2132 123.583C94.6127 123.388 94.9308 123.115 95.1676 122.766C95.4044 122.416 95.5323 122.013 95.5514 121.557C95.5705 121.101 95.461 120.63 95.2228 120.144C94.9808 119.651 94.6716 119.268 94.2952 118.996C93.9227 118.731 93.5239 118.582 93.0989 118.548C92.6777 118.521 92.2674 118.606 91.8679 118.802C91.4685 118.997 91.1503 119.27 90.9136 119.619C90.6728 119.98 90.5428 120.389 90.5237 120.845C90.5085 121.31 90.6199 121.785 90.8581 122.27Z" fill="#333333"/>
<path d="M85.7418 128.065C84.908 128.321 84.1543 128.275 83.4808 127.926C82.8098 127.585 82.3279 126.939 82.0353 125.988L80.7913 121.949L81.9169 121.602L83.1108 125.479C83.3213 126.163 83.6527 126.631 84.105 126.884C84.5598 127.146 85.0832 127.186 85.6752 127.003C86.2755 126.819 86.6971 126.483 86.9401 125.998C87.1748 125.515 87.1817 124.915 86.9609 124.198L85.794 120.408L86.9321 120.058L89.0426 126.911L87.9044 127.262L87.604 126.286C87.4868 126.706 87.2659 127.07 86.9414 127.38C86.6086 127.693 86.2087 127.921 85.7418 128.065Z" fill="#333333"/>
<path d="M78.5378 128.635L77.8255 124.468C77.7666 124.125 77.6516 123.892 77.4805 123.771C77.3107 123.658 77.0453 123.633 76.6841 123.694L75.8199 123.842L75.6501 122.849L76.7078 122.668C77.3613 122.556 77.8772 122.623 78.2555 122.868C78.6337 123.113 78.8816 123.58 78.9993 124.268L79.7116 128.434L80.6275 128.278L80.7929 129.245L79.8771 129.402L80.1814 131.182L79.0076 131.382L78.7032 129.602L76.8587 129.918L76.6933 128.95L78.5378 128.635Z" fill="#333333"/>
<path d="M70.3434 123.187C70.5701 123.18 70.7644 123.253 70.9262 123.405C71.088 123.557 71.1724 123.746 71.1794 123.973C71.1864 124.2 71.1139 124.394 70.9618 124.556C70.8097 124.718 70.6202 124.802 70.3935 124.809C70.1755 124.816 69.99 124.743 69.8369 124.591C69.6751 124.439 69.5907 124.249 69.5837 124.022C69.5767 123.796 69.6492 123.601 69.8013 123.44C69.9447 123.278 70.1254 123.194 70.3434 123.187Z" fill="#333333"/>
<path d="M62.7718 128.888C62.4818 129.261 62.0892 129.55 61.5939 129.754C61.0887 129.965 60.5294 130.028 59.9159 129.942C59.2852 129.854 58.736 129.624 58.2684 129.25C57.7922 128.875 57.4458 128.391 57.2292 127.797C57.0114 127.212 56.9532 126.556 57.0545 125.83C57.1546 125.113 57.3907 124.494 57.7629 123.974C58.135 123.453 58.602 123.073 59.1639 122.835C59.717 122.595 60.309 122.519 60.9398 122.607C61.5446 122.691 62.0616 122.9 62.4908 123.233C62.9102 123.573 63.2125 123.963 63.3977 124.403L64.0507 119.725L65.2301 119.889L63.7685 130.361L62.5891 130.197L62.7718 128.888ZM58.2598 125.998C58.185 126.534 58.2279 127.016 58.3885 127.443C58.549 127.871 58.8006 128.214 59.1431 128.474C59.4771 128.732 59.8644 128.891 60.3051 128.953C60.7371 129.013 61.1539 128.961 61.5556 128.797C61.9475 128.64 62.284 128.375 62.5654 128C62.8369 127.633 63.0094 127.185 63.0829 126.658C63.1577 126.123 63.1154 125.637 62.9561 125.2C62.7869 124.772 62.536 124.424 62.2032 124.157C61.8606 123.898 61.4733 123.738 61.0413 123.678C60.6006 123.616 60.1844 123.664 59.7926 123.821C59.3909 123.985 59.0543 124.251 58.7828 124.618C58.5101 124.994 58.3358 125.454 58.2598 125.998Z" fill="#333333"/>
<path d="M52.9458 130.947L55.3365 121.563L56.4905 121.857L54.0998 131.241L52.9458 130.947Z" fill="#333333"/>
<path d="M52.6666 124.695C52.4066 125.38 52.0404 125.927 51.5681 126.335C51.0927 126.752 50.5602 127.012 49.9706 127.115C49.3728 127.215 48.7763 127.151 48.1808 126.925C47.5936 126.703 47.1318 126.383 46.7954 125.966C46.4591 125.549 46.2576 125.108 46.1911 124.645L45.7267 125.868L44.6011 125.441L47.1456 118.736L48.2712 119.163L47.7976 120.411C48.1664 120.103 48.6206 119.903 49.1601 119.809C49.6883 119.72 50.242 119.785 50.8211 120.005C51.4166 120.231 51.8992 120.582 52.269 121.059C52.6388 121.535 52.8617 122.091 52.9378 122.726C53.0139 123.361 52.9235 124.018 52.6666 124.695ZM46.9943 122.528C46.8024 123.034 46.7372 123.513 46.7987 123.965C46.8603 124.418 47.0292 124.809 47.3057 125.138C47.5709 125.472 47.9114 125.717 48.3274 125.875C48.7434 126.033 49.1598 126.079 49.5767 126.013C49.9936 125.948 50.3751 125.766 50.7215 125.468C51.0678 125.17 51.3369 124.769 51.5288 124.263C51.7238 123.749 51.7921 123.262 51.7337 122.801C51.6721 122.348 51.5088 121.955 51.2436 121.621C50.9753 121.295 50.6332 121.054 50.2172 120.896C49.8012 120.738 49.3848 120.692 48.9679 120.758C48.5398 120.828 48.1526 121.013 47.8063 121.31C47.4569 121.616 47.1862 122.022 46.9943 122.528Z" fill="#333333"/>
<path d="M39.2644 122.741C38.5084 122.305 38.0288 121.722 37.8257 120.991C37.6182 120.267 37.7627 119.475 38.259 118.613L40.3685 114.95L41.3891 115.538L39.3645 119.053C39.0075 119.673 38.8903 120.235 39.0131 120.739C39.1315 121.25 39.459 121.66 39.9958 121.969C40.5401 122.283 41.0728 122.363 41.5938 122.21C42.1072 122.052 42.5512 121.649 42.9256 120.999L44.9045 117.563L45.9365 118.157L42.3574 124.371L41.3255 123.777L41.8349 122.892C41.4479 123.092 41.0305 123.179 40.5826 123.153C40.1271 123.122 39.6877 122.985 39.2644 122.741Z" fill="#333333"/>
<path d="M33.9634 117.896L36.5118 114.524C36.7222 114.246 36.8129 114.003 36.784 113.795C36.7499 113.594 36.5866 113.383 36.2943 113.162L35.5948 112.634L36.2023 111.83L37.0584 112.477C37.5874 112.876 37.8921 113.298 37.9725 113.742C38.0529 114.185 37.8827 114.685 37.4619 115.242L34.9135 118.614L35.6547 119.174L35.063 119.957L34.3217 119.397L33.2329 120.838L32.2829 120.12L33.3717 118.679L31.8787 117.551L32.4704 116.768L33.9634 117.896Z" fill="#333333"/>
<path d="M32.322 108.184C32.4824 108.345 32.5626 108.536 32.5626 108.758C32.5626 108.98 32.4824 109.171 32.322 109.332C32.1616 109.492 31.9703 109.572 31.7483 109.572C31.5262 109.572 31.3349 109.492 31.1745 109.332C31.0203 109.178 30.9463 108.993 30.9525 108.777C30.9525 108.555 31.0327 108.363 31.1931 108.203C31.3534 108.043 31.5447 107.962 31.7668 107.962C31.9827 107.956 32.1677 108.03 32.322 108.184Z" fill="#333333"/>
<path d="M23.1509 106.77C22.6803 106.815 22.2008 106.728 21.7125 106.508C21.212 106.285 20.7823 105.922 20.4234 105.417C20.0545 104.898 19.8453 104.34 19.796 103.744C19.7416 103.14 19.8561 102.556 20.1393 101.99C20.4154 101.43 20.8522 100.938 21.4495 100.513C22.0397 100.094 22.6518 99.8407 23.2859 99.7539C23.9199 99.6672 24.5166 99.7461 25.0758 99.9908C25.63 100.228 26.0916 100.607 26.4606 101.126C26.8144 101.624 27.0175 102.143 27.07 102.683C27.1103 103.222 27.0342 103.71 26.8415 104.146L30.692 101.409L31.3819 102.38L22.7636 108.506L22.0736 107.535L23.1509 106.77ZM22.1546 101.505C21.7137 101.819 21.3929 102.18 21.1921 102.591C20.9914 103.001 20.9144 103.42 20.961 103.847C21.0027 104.267 21.1524 104.658 21.4101 105.021C21.6628 105.376 21.9868 105.644 22.3819 105.823C22.7648 106 23.1891 106.063 23.6547 106.01C24.1082 105.955 24.5518 105.774 24.9855 105.466C25.4264 105.152 25.7508 104.788 25.9586 104.373C26.1543 103.955 26.2349 103.534 26.2004 103.109C26.1537 102.682 26.004 102.291 25.7513 101.935C25.4935 101.572 25.1732 101.302 24.7902 101.125C24.3951 100.946 23.9708 100.883 23.5174 100.938C23.0568 100.998 22.6025 101.187 22.1546 101.505Z" fill="#333333"/>
<path d="M14.8653 100.966L23.3445 96.2886L23.9197 97.3313L15.4405 102.009L14.8653 100.966Z" fill="#333333"/>
<path d="M19.2256 96.4932C18.5486 96.7736 17.8994 96.8819 17.2781 96.8182C16.6487 96.7578 16.0945 96.5483 15.6155 96.1896C15.1331 95.8228 14.77 95.3452 14.5263 94.7568C14.2859 94.1765 14.2022 93.621 14.2752 93.0903C14.3481 92.5596 14.5306 92.1111 14.8226 91.7446L13.6136 92.2454L13.1529 91.1331L19.7783 88.3889L20.239 89.5012L19.0058 90.012C19.4828 90.0694 19.9404 90.2623 20.3786 90.5907C20.8054 90.9144 21.1373 91.3624 21.3744 91.9346C21.6181 92.523 21.6933 93.1151 21.6001 93.7108C21.5069 94.3065 21.2551 94.8499 20.8447 95.341C20.4343 95.832 19.8946 96.2161 19.2256 96.4932ZM16.9142 90.8783C16.4145 91.0853 16.021 91.3663 15.7336 91.7214C15.4463 92.0764 15.2777 92.4673 15.2278 92.894C15.1666 93.316 15.221 93.7325 15.3913 94.1436C15.5616 94.5547 15.8135 94.8894 16.1472 95.1478C16.4808 95.4062 16.8748 95.5594 17.329 95.6073C17.7832 95.6553 18.2602 95.5757 18.7599 95.3688C19.2677 95.1585 19.6693 94.8741 19.9646 94.5157C20.252 94.1606 20.4263 93.7721 20.4875 93.3501C20.5408 92.9315 20.4823 92.5166 20.312 92.1055C20.1418 91.6945 19.8898 91.3597 19.5561 91.1013C19.2111 90.8382 18.8115 90.6827 18.3572 90.6347C17.8949 90.5901 17.4139 90.6713 16.9142 90.8783Z" fill="#333333"/>
<path d="M11.4654 85.4652C11.2629 84.6166 11.3577 83.8675 11.7498 83.2178C12.1334 82.5702 12.8089 82.131 13.7763 81.9001L17.8877 80.9191L18.161 82.0647L14.2151 83.0062C13.5192 83.1723 13.0304 83.4728 12.7485 83.9078C12.4582 84.3448 12.3849 84.8646 12.5286 85.4671C12.6744 86.0781 12.9818 86.5204 13.4507 86.7942C13.9176 87.0595 14.516 87.1051 15.2458 86.9309L19.1026 86.0106L19.379 87.1689L12.4036 88.8334L12.1272 87.6751L13.1201 87.4382C12.709 87.2941 12.3593 87.0502 12.071 86.7064C11.7806 86.3541 11.5787 85.9404 11.4654 85.4652Z" fill="#333333"/>
<path d="M11.3493 78.3184L15.5515 77.863C15.8984 77.8254 16.1376 77.7249 16.2691 77.5615C16.3919 77.399 16.4336 77.1356 16.3941 76.7713L16.2996 75.8997L17.3014 75.7911L17.417 76.8579C17.4884 77.5171 17.3902 78.0279 17.1224 78.3904C16.8545 78.7529 16.3737 78.9718 15.6798 79.0469L11.4776 79.5023L11.5777 80.426L10.6019 80.5317L10.5018 79.608L8.70642 79.8026L8.57812 78.6187L10.3735 78.4241L10.1719 76.5637L11.1477 76.4579L11.3493 78.3184Z" fill="#333333"/>
</svg>
