<svg width="191" height="194" viewBox="0 0 191 194" fill="none" xmlns="http://www.w3.org/2000/svg">
<path d="M95.5 34.9897C129.371 34.99 156.834 62.6313 156.834 96.7349C156.834 130.839 129.371 158.481 95.5 158.481C61.6287 158.481 34.166 130.839 34.166 96.7349C34.1661 62.6311 61.6287 34.9897 95.5 34.9897Z" stroke="#333333" stroke-width="0.823276"/>
<path d="M95.5 0.412109C148.011 0.412109 190.588 43.5325 190.588 96.7354C190.588 149.938 148.011 193.059 95.5 193.059C42.9893 193.059 0.412341 149.938 0.412109 96.7354C0.412109 43.5325 42.9891 0.412109 95.5 0.412109Z" stroke="#333333" stroke-width="0.823276"/>
<path d="M15.9949 91.2118C15.4542 90.843 15.0219 90.3251 14.698 89.6582C14.363 88.9783 14.2286 88.211 14.2947 87.3563C14.3626 86.4774 14.6347 85.6992 15.1109 85.0214C15.5881 84.3317 16.2278 83.8119 17.0299 83.4622C17.82 83.1115 18.7207 82.9752 19.7319 83.0534C20.7312 83.1306 21.6062 83.4042 22.3571 83.874C23.108 84.3438 23.6722 84.9566 24.0498 85.7124C24.4282 86.4562 24.5835 87.2675 24.5156 88.1463C24.4505 88.9891 24.2062 89.721 23.7827 90.3423C23.3481 90.9506 22.8349 91.4014 22.243 91.6947L28.762 92.1986L28.635 93.8419L14.044 92.7141L14.171 91.0708L15.9949 91.2118ZM19.6021 84.7328C18.8557 84.6751 18.194 84.7753 17.6169 85.0335C17.0399 85.2917 16.5869 85.6684 16.2579 86.1637C15.9299 86.647 15.7422 87.1957 15.6947 87.8097C15.6482 88.4116 15.7554 88.983 16.0164 89.524C16.2662 90.0519 16.6619 90.4943 17.2036 90.851C17.7341 91.1948 18.3665 91.3951 19.1009 91.4518C19.8473 91.5095 20.5151 91.4098 21.1041 91.1525C21.6821 90.8823 22.1411 90.5061 22.4812 90.0237C22.8101 89.5284 22.9979 88.9797 23.0444 88.3778C23.0919 87.7638 22.9907 87.1928 22.7408 86.6649C22.4799 86.1239 22.0841 85.6816 21.5536 85.3378C21.0111 84.9931 20.3606 84.7914 19.6021 84.7328Z" fill="#333333"/>
<path d="M12.301 77.7759L25.4666 80.2871L25.1578 81.9061L11.9922 79.3949L12.301 77.7759Z" fill="#333333"/>
<path d="M20.8863 76.9357C19.9169 76.6372 19.1291 76.1799 18.5229 75.5636C17.9052 74.9439 17.4992 74.2313 17.305 73.4261C17.1143 72.6093 17.1486 71.7797 17.408 70.9373C17.6639 70.1064 18.0648 69.4403 18.6109 68.9388C19.157 68.4374 19.7474 68.1201 20.3822 67.9871L18.6512 67.4541L19.1416 65.8615L28.6274 68.7825L28.1371 70.375L26.3714 69.8313C26.8294 70.3135 27.1471 70.923 27.3245 71.6599C27.4939 72.3816 27.4524 73.1522 27.2002 73.9715C26.9407 74.814 26.4985 75.5116 25.8734 76.0646C25.2483 76.6175 24.5003 76.9747 23.6294 77.136C22.7585 77.2974 21.8441 77.2307 20.8863 76.9357ZM23.3768 68.9092C22.6613 68.6889 21.9938 68.6413 21.3741 68.7663C20.7544 68.8913 20.2297 69.1593 19.7999 69.5703C19.3622 69.9661 19.0527 70.4583 18.8715 71.0468C18.6902 71.6354 18.6635 72.2146 18.7912 72.7846C18.9189 73.3546 19.2038 73.8655 19.6458 74.3175C20.0878 74.7694 20.6665 75.1056 21.382 75.3259C22.109 75.5498 22.7881 75.6009 23.4193 75.4795C24.039 75.3544 24.5677 75.094 25.0055 74.6981C25.4317 74.2987 25.7354 73.8048 25.9166 73.2162C26.0979 72.6277 26.1246 72.0484 25.9969 71.4785C25.8612 70.8934 25.5723 70.3749 25.1303 69.923C24.6768 69.4674 24.0923 69.1295 23.3768 68.9092Z" fill="#333333"/>
<path d="M22.4321 58.1681C22.9678 57.086 23.7318 56.3729 24.724 56.0288C25.7055 55.6793 26.813 55.8099 28.0466 56.4206L33.2895 59.0162L32.5663 60.4771L27.5344 57.986C26.647 57.5467 25.8609 57.4337 25.1759 57.647C24.4802 57.8549 23.9421 58.3431 23.5617 59.1114C23.176 59.8905 23.1114 60.6333 23.368 61.3397C23.63 62.0352 24.2263 62.6134 25.1569 63.0741L30.0752 65.5089L29.3439 66.986L20.4488 62.5824L21.1801 61.1053L22.4462 61.7321C22.1363 61.2149 21.9802 60.6458 21.9777 60.0249C21.9806 59.393 22.1321 58.7741 22.4321 58.1681Z" fill="#333333"/>
<path d="M28.6546 50.431L33.532 53.6615C33.9347 53.9282 34.2783 54.0327 34.5628 53.9749C34.8372 53.9104 35.1144 53.6668 35.3944 53.244L36.0645 52.2323L37.2273 53.0024L36.4071 54.2406C35.9004 55.0057 35.3442 55.4628 34.7385 55.612C34.1328 55.7611 33.4272 55.569 32.6219 55.0356L27.7445 51.8052L27.0344 52.8773L25.9019 52.1272L26.612 51.0551L24.5281 49.6749L25.4383 48.3007L27.5221 49.6809L28.9523 47.5216L30.0848 48.2717L28.6546 50.431Z" fill="#333333"/>
<path d="M41.9597 47.2804C41.7519 47.5157 41.4945 47.6428 41.1878 47.6618C40.881 47.6807 40.6099 47.5863 40.3747 47.3784C40.1394 47.1706 40.0123 46.9132 39.9933 46.6065C39.9743 46.2997 40.0688 46.0286 40.2766 45.7934C40.4765 45.5671 40.7258 45.4491 41.0246 45.4391C41.3314 45.4202 41.6024 45.5146 41.8377 45.7225C42.073 45.9303 42.2001 46.1877 42.2191 46.4944C42.246 46.7922 42.1596 47.0542 41.9597 47.2804Z" fill="#333333"/>
<path d="M43.1638 34.459C43.0604 33.8128 43.1399 33.1429 43.4022 32.4494C43.6663 31.739 44.1317 31.1143 44.7983 30.5753C45.4837 30.021 46.2363 29.6843 47.056 29.565C47.8851 29.4381 48.7022 29.546 49.5073 29.8888C50.3048 30.2222 51.0225 30.7833 51.6602 31.572C52.2903 32.3513 52.6925 33.1752 52.8668 34.0436C53.041 34.912 52.9831 35.743 52.693 36.5366C52.4124 37.3225 51.9293 37.9926 51.2439 38.5468C50.5867 39.0783 49.8869 39.4034 49.1445 39.5223C48.4039 39.6242 47.7237 39.5608 47.104 39.3321L51.2151 44.4165L49.9334 45.4528L40.7319 34.0729L42.0136 33.0366L43.1638 34.459ZM50.3504 32.6311C49.8797 32.0489 49.3523 31.6368 48.7684 31.3947C48.1844 31.1526 47.5994 31.0821 47.0135 31.1832C46.4369 31.2767 45.9092 31.5171 45.4304 31.9043C44.9609 32.2839 44.6192 32.7543 44.4052 33.3154C44.1931 33.8597 44.1434 34.4511 44.2561 35.0898C44.3706 35.7115 44.6594 36.3087 45.1225 36.8815C45.5932 37.4636 46.1243 37.8805 46.7159 38.132C47.3092 38.3665 47.898 38.4417 48.4822 38.3575C49.0681 38.2564 49.5958 38.0161 50.0653 37.6365C50.5441 37.2493 50.8896 36.7836 51.1018 36.2394C51.3157 35.6782 51.3654 35.0867 51.2509 34.465C51.1289 33.8339 50.8287 33.2226 50.3504 32.6311Z" fill="#333333"/>
<path d="M50.4286 22.5432L57.6236 33.8512L56.233 34.736L49.0381 23.428L50.4286 22.5432Z" fill="#333333"/>
<path d="M56.991 28.1799C56.5444 27.2693 56.3379 26.3821 56.3715 25.5183C56.3998 24.6437 56.6407 23.8598 57.0943 23.1667C57.5586 22.4682 58.1865 21.9249 58.9779 21.5368C59.7585 21.154 60.5184 20.9897 61.2578 21.044C61.9972 21.0982 62.6328 21.311 63.1646 21.6823L62.367 20.0561L63.8631 19.3224L68.2337 28.2337L66.7376 28.9675L65.9241 27.3088C65.8866 27.9727 65.6603 28.6217 65.245 29.2557C64.8352 29.8736 64.2455 30.3713 63.4758 30.7488C62.6844 31.137 61.8732 31.2927 61.0422 31.2162C60.2111 31.1396 59.4385 30.8394 58.7243 30.3155C58.0101 29.7916 57.4323 29.0797 56.991 28.1799ZM64.5444 24.4955C64.2147 23.8234 63.7921 23.3045 63.2765 22.9387C62.7608 22.5729 62.2062 22.3743 61.6124 22.3427C61.0241 22.295 60.4536 22.4067 59.9007 22.6779C59.3478 22.9491 58.9075 23.3264 58.5798 23.8099C58.252 24.2934 58.075 24.851 58.0485 25.4826C58.0221 26.1142 58.1737 26.7661 58.5033 27.4382C58.8383 28.1212 59.2663 28.651 59.7872 29.0276C60.3028 29.3934 60.8547 29.6001 61.443 29.6478C62.0259 29.6847 62.5938 29.5675 63.1467 29.2964C63.6996 29.0252 64.1399 28.6479 64.4676 28.1644C64.8009 27.6647 64.9807 27.0991 65.0071 26.4674C65.0283 25.825 64.874 25.1677 64.5444 24.4955Z" fill="#333333"/>
<path d="M71.6257 16.4757C72.7797 16.1203 73.8228 16.1845 74.755 16.6681C75.6837 17.1402 76.3506 18.034 76.7557 19.3496L78.4774 24.9407L76.9195 25.4204L75.2671 20.0543C74.9757 19.108 74.5171 18.4596 73.8911 18.1091C73.2616 17.747 72.5372 17.6922 71.7179 17.9445C70.887 18.2003 70.3034 18.6643 69.9671 19.3364C69.6423 20.0049 69.6327 20.8354 69.9383 21.8279L71.5534 27.0728L69.9782 27.5578L67.0572 18.072L68.6324 17.5869L69.0482 18.9371C69.2105 18.3565 69.5162 17.8517 69.9653 17.4228C70.426 16.9904 70.9794 16.6747 71.6257 16.4757Z" fill="#333333"/>
<path d="M81.5963 15.6865L82.5823 21.453C82.6637 21.9291 82.8229 22.251 83.0598 22.4187C83.2947 22.5746 83.6621 22.6097 84.162 22.5243L85.3581 22.3197L85.5932 23.6944L84.1292 23.9447C83.2247 24.0994 82.5107 24.0071 81.9872 23.6679C81.4636 23.3286 81.1205 22.6829 80.9577 21.7308L79.9717 15.9643L78.7042 16.181L78.4752 14.842L79.7428 14.6253L79.3215 12.1616L80.9462 11.8838L81.3674 14.3475L83.9204 13.911L84.1493 15.25L81.5963 15.6865Z" fill="#333333"/>
<path d="M92.9379 23.2264C92.6241 23.2361 92.3552 23.1356 92.1313 22.9251C91.9073 22.7146 91.7905 22.4524 91.7808 22.1386C91.7711 21.8248 91.8715 21.556 92.0821 21.332C92.2926 21.1081 92.5548 20.9912 92.8685 20.9815C93.1703 20.9722 93.4271 21.073 93.639 21.2839C93.8629 21.4945 93.9797 21.7566 93.9894 22.0704C93.9991 22.3842 93.8987 22.6531 93.6882 22.877C93.4897 23.1006 93.2396 23.2171 92.9379 23.2264Z" fill="#333333"/>
<path d="M103.417 15.3366C103.819 14.8196 104.362 14.42 105.048 14.1377C105.747 13.8452 106.521 13.7582 107.37 13.8767C108.243 13.9985 109.003 14.318 109.65 14.835C110.309 15.3537 110.789 16.0241 111.089 16.8462C111.39 17.6564 111.471 18.5637 111.331 19.5683C111.192 20.5608 110.865 21.4174 110.35 22.138C109.835 22.8586 109.189 23.384 108.411 23.7144C107.645 24.0464 106.826 24.1515 105.953 24.0297C105.116 23.9128 104.4 23.624 103.806 23.1631C103.226 22.692 102.808 22.152 102.551 21.5432L101.647 28.0189L100.015 27.7911L102.038 13.297L103.67 13.5249L103.417 15.3366ZM109.662 19.3354C109.766 18.594 109.706 17.9273 109.484 17.3355C109.262 16.7437 108.914 16.2684 108.44 15.9096C107.978 15.5525 107.441 15.3313 106.832 15.2462C106.234 15.1628 105.657 15.2346 105.101 15.4618C104.558 15.6787 104.093 16.0465 103.703 16.5652C103.327 17.0736 103.089 17.6925 102.987 18.422C102.883 19.1634 102.942 19.836 103.162 20.4398C103.397 21.0333 103.744 21.5146 104.204 21.8837C104.679 22.2425 105.215 22.4636 105.813 22.5471C106.422 22.6322 106.999 22.5663 107.541 22.3494C108.097 22.1222 108.563 21.7544 108.938 21.246C109.316 20.7257 109.557 20.0888 109.662 19.3354Z" fill="#333333"/>
<path d="M117.017 12.4858L113.708 25.4739L112.111 25.067L115.42 12.0789L117.017 12.4858Z" fill="#333333"/>
<path d="M117.404 21.1399C117.763 20.1916 118.27 19.4347 118.924 18.8692C119.582 18.2923 120.319 17.9327 121.135 17.7904C121.962 17.6523 122.788 17.7397 123.612 18.0524C124.425 18.3609 125.064 18.8037 125.53 19.3807C125.995 19.9577 126.274 20.5672 126.366 21.2092L127.009 19.5158L128.567 20.1071L125.045 29.3867L123.487 28.7955L124.143 27.0682C123.632 27.4944 123.004 27.7725 122.257 27.9024C121.526 28.0253 120.759 27.9346 119.958 27.6304C119.134 27.3177 118.466 26.8317 117.954 26.1725C117.442 25.5133 117.134 24.744 117.028 23.8646C116.923 22.9851 117.048 22.0769 117.404 21.1399ZM125.254 24.1387C125.52 23.4388 125.61 22.7756 125.525 22.1492C125.44 21.5228 125.206 20.982 124.823 20.5269C124.456 20.0647 123.985 19.7244 123.409 19.5059C122.834 19.2874 122.257 19.2236 121.68 19.3146C121.103 19.4056 120.575 19.6572 120.096 20.0694C119.617 20.4816 119.244 21.0376 118.978 21.7376C118.709 22.4488 118.614 23.1232 118.695 23.7609C118.78 24.3873 119.006 24.9316 119.373 25.3938C119.744 25.8447 120.218 26.1793 120.794 26.3978C121.369 26.6163 121.946 26.6801 122.523 26.5891C123.115 26.4911 123.651 26.236 124.131 25.8238C124.614 25.4003 124.989 24.8386 125.254 24.1387Z" fill="#333333"/>
<path d="M135.953 23.8442C136.999 24.4468 137.663 25.2541 137.944 26.266C138.231 27.2674 138.032 28.3645 137.345 29.5574L134.425 34.6269L133.012 33.8134L135.814 28.9479C136.309 28.0899 136.471 27.3124 136.301 26.6154C136.137 25.9079 135.684 25.3402 134.941 24.9124C134.187 24.4785 133.45 24.3674 132.729 24.5791C132.018 24.7969 131.404 25.3557 130.886 26.2555L128.147 31.0112L126.719 30.1886L131.672 21.5876L133.1 22.4102L132.395 23.6344C132.931 23.3577 133.509 23.2376 134.129 23.2741C134.759 23.3167 135.367 23.5067 135.953 23.8442Z" fill="#333333"/>
<path d="M143.29 30.5494L139.763 35.2167C139.472 35.602 139.346 35.9385 139.386 36.226C139.433 36.5039 139.659 36.7957 140.064 37.1015L141.032 37.8331L140.191 38.9457L139.006 38.0503C138.274 37.497 137.852 36.9135 137.741 36.2997C137.63 35.6859 137.865 34.9936 138.448 34.223L141.975 29.5556L140.949 28.7803L141.768 27.6966L142.794 28.4719L144.301 26.4778L145.616 27.4715L144.109 29.4656L146.175 31.0272L145.356 32.1109L143.29 30.5494Z" fill="#333333"/>
<path d="M145.562 43.9911C145.34 43.7691 145.229 43.5044 145.229 43.197C145.229 42.8896 145.34 42.625 145.562 42.403C145.784 42.181 146.048 42.07 146.356 42.07C146.663 42.07 146.928 42.181 147.15 42.403C147.363 42.6164 147.466 42.8726 147.457 43.1714C147.457 43.4788 147.346 43.7435 147.124 43.9654C146.902 44.1874 146.638 44.2984 146.33 44.2984C146.031 44.307 145.775 44.2045 145.562 43.9911Z" fill="#333333"/>
<path d="M158.255 45.9493C158.906 45.8862 159.57 46.0071 160.246 46.3118C160.939 46.6194 161.533 47.1226 162.03 47.8214C162.541 48.5398 162.83 49.3118 162.898 50.1373C162.974 50.9727 162.815 51.7815 162.423 52.5639C162.041 53.3392 161.437 54.0207 160.61 54.6083C159.793 55.1889 158.946 55.5393 158.068 55.6594C157.191 55.7795 156.365 55.6702 155.591 55.3315C154.824 55.0027 154.185 54.479 153.674 53.7606C153.185 53.0716 152.903 52.353 152.831 51.6047C152.775 50.8592 152.88 50.1843 153.147 49.5799L147.818 53.368L146.863 52.0246L158.791 43.546L159.746 44.8895L158.255 45.9493ZM159.634 53.2354C160.244 52.8016 160.688 52.3009 160.966 51.733C161.244 51.1652 161.351 50.5857 161.286 49.9946C161.228 49.4134 161.021 48.8718 160.664 48.3699C160.315 47.8778 159.866 47.5076 159.319 47.2593C158.789 47.0138 158.202 46.9275 157.558 47.0004C156.93 47.0761 156.316 47.3274 155.716 47.7541C155.106 48.1878 154.657 48.6921 154.369 49.2669C154.098 49.8446 153.987 50.4276 154.034 51.0158C154.099 51.6069 154.306 52.1485 154.656 52.6406C155.013 53.1425 155.456 53.5162 155.986 53.7617C156.533 54.01 157.12 54.0963 157.748 54.0206C158.385 53.9378 159.014 53.6761 159.634 53.2354Z" fill="#333333"/>
<path d="M169.723 53.9818L157.987 60.4556L157.191 59.0124L168.927 52.5386L169.723 53.9818Z" fill="#333333"/>
<path d="M163.688 60.1724C164.625 59.7843 165.523 59.6344 166.383 59.7226C167.254 59.8061 168.021 60.0962 168.685 60.5926C169.352 61.1003 169.855 61.7613 170.192 62.5756C170.525 63.3788 170.641 64.1477 170.54 64.8822C170.439 65.6167 170.186 66.2375 169.782 66.7447L171.455 66.0516L172.093 67.5911L162.923 71.3892L162.285 69.8497L163.992 69.1428C163.332 69.0633 162.699 68.7964 162.092 68.3418C161.501 67.8938 161.042 67.2738 160.714 66.4817C160.377 65.6673 160.272 64.8479 160.401 64.0234C160.53 63.1988 160.879 62.4468 161.447 61.7671C162.015 61.0875 162.762 60.5559 163.688 60.1724ZM166.887 67.9437C167.579 67.6573 168.123 67.2683 168.521 66.7769C168.919 66.2854 169.152 65.7444 169.221 65.1538C169.306 64.5698 169.23 63.9933 168.995 63.4244C168.759 62.8554 168.41 62.3921 167.949 62.0345C167.487 61.6768 166.942 61.4648 166.313 61.3985C165.684 61.3321 165.024 61.4422 164.332 61.7287C163.63 62.0198 163.074 62.4133 162.665 62.9094C162.267 63.4008 162.026 63.9386 161.941 64.5226C161.868 65.102 161.949 65.6762 162.184 66.2452C162.42 66.8141 162.769 67.2774 163.23 67.6351C163.708 67.9992 164.261 68.2145 164.89 68.2809C165.53 68.3426 166.195 68.2302 166.887 67.9437Z" fill="#333333"/>
<path d="M174.429 75.4358C174.709 76.6103 174.578 77.6471 174.035 78.5463C173.504 79.4426 172.569 80.0505 171.23 80.37L165.54 81.7279L165.161 80.1423L170.623 78.8391C171.586 78.6093 172.262 78.1934 172.653 77.5913C173.054 76.9864 173.156 76.2671 172.957 75.4332C172.755 74.5875 172.33 73.9753 171.681 73.5963C171.034 73.2292 170.206 73.1661 169.196 73.4071L163.858 74.6809L163.476 73.0777L173.13 70.774L173.512 72.3772L172.138 72.7051C172.707 72.9045 173.191 73.2421 173.59 73.7179C173.992 74.2054 174.272 74.7781 174.429 75.4358Z" fill="#333333"/>
<path d="M174.589 85.3274L168.773 85.9576C168.293 86.0097 167.962 86.1488 167.78 86.375C167.61 86.5999 167.552 86.9644 167.607 87.4686L167.738 88.675L166.351 88.8253L166.191 87.3487C166.092 86.4364 166.228 85.7294 166.599 85.2277C166.97 84.726 167.635 84.4231 168.596 84.319L174.412 83.6888L174.273 82.4103L175.624 82.264L175.762 83.5424L178.247 83.2732L178.425 84.9118L175.94 85.181L176.219 87.756L174.868 87.9023L174.589 85.3274Z" fill="#333333"/>
<path d="M174.303 102.513C174.843 102.882 175.276 103.4 175.6 104.067C175.935 104.747 176.069 105.514 176.003 106.369C175.935 107.248 175.663 108.026 175.187 108.704C174.71 109.394 174.07 109.913 173.268 110.263C172.478 110.614 171.577 110.75 170.566 110.672C169.567 110.595 168.691 110.321 167.941 109.851C167.19 109.381 166.626 108.769 166.248 108.013C165.869 107.269 165.714 106.458 165.782 105.579C165.847 104.736 166.092 104.004 166.515 103.383C166.95 102.775 167.463 102.324 168.055 102.031L161.536 101.527L161.663 99.8833L176.254 101.011L176.127 102.654L174.303 102.513ZM170.696 108.992C171.442 109.05 172.104 108.95 172.681 108.692C173.258 108.434 173.711 108.057 174.04 107.562C174.368 107.078 174.555 106.53 174.603 105.916C174.649 105.314 174.542 104.742 174.281 104.201C174.031 103.673 173.636 103.231 173.094 102.874C172.564 102.53 171.931 102.33 171.197 102.273C170.45 102.216 169.783 102.315 169.194 102.573C168.616 102.843 168.157 103.219 167.816 103.702C167.488 104.197 167.3 104.746 167.253 105.347C167.206 105.961 167.307 106.532 167.557 107.06C167.818 107.601 168.214 108.044 168.744 108.387C169.287 108.732 169.937 108.934 170.696 108.992Z" fill="#333333"/>
<path d="M177.997 115.949L164.831 113.438L165.14 111.819L178.306 114.33L177.997 115.949Z" fill="#333333"/>
<path d="M169.411 116.79C170.381 117.088 171.169 117.545 171.775 118.162C172.392 118.781 172.798 119.494 172.993 120.299C173.183 121.116 173.149 121.945 172.89 122.788C172.634 123.619 172.233 124.285 171.687 124.786C171.141 125.288 170.55 125.605 169.916 125.738L171.646 126.271L171.156 127.864L161.67 124.943L162.161 123.35L163.926 123.894C163.468 123.412 163.151 122.802 162.973 122.065C162.804 121.344 162.845 120.573 163.098 119.754C163.357 118.911 163.799 118.214 164.424 117.661C165.049 117.108 165.797 116.751 166.668 116.589C167.539 116.428 168.454 116.495 169.411 116.79ZM166.921 124.816C167.636 125.036 168.304 125.084 168.924 124.959C169.543 124.834 170.068 124.566 170.498 124.155C170.936 123.759 171.245 123.267 171.426 122.678C171.607 122.09 171.634 121.511 171.507 120.941C171.379 120.371 171.094 119.86 170.652 119.408C170.21 118.956 169.631 118.62 168.916 118.399C168.189 118.175 167.51 118.124 166.878 118.246C166.259 118.371 165.73 118.631 165.292 119.027C164.866 119.427 164.562 119.92 164.381 120.509C164.2 121.098 164.173 121.677 164.301 122.247C164.436 122.832 164.725 123.35 165.167 123.802C165.621 124.258 166.205 124.596 166.921 124.816Z" fill="#333333"/>
<path d="M167.866 135.557C167.33 136.639 166.566 137.352 165.574 137.696C164.592 138.046 163.485 137.915 162.251 137.305L157.008 134.709L157.731 133.248L162.763 135.739C163.651 136.179 164.437 136.292 165.122 136.078C165.818 135.87 166.356 135.382 166.736 134.614C167.122 133.835 167.186 133.092 166.93 132.386C166.668 131.69 166.071 131.112 165.141 130.651L160.223 128.216L160.954 126.739L169.849 131.143L169.118 132.62L167.852 131.993C168.161 132.51 168.318 133.079 168.32 133.7C168.317 134.332 168.166 134.951 167.866 135.557Z" fill="#333333"/>
<path d="M161.643 143.294L156.766 140.064C156.363 139.797 156.019 139.693 155.735 139.75C155.461 139.815 155.183 140.058 154.903 140.481L154.233 141.493L153.07 140.723L153.891 139.485C154.397 138.72 154.954 138.262 155.559 138.113C156.165 137.964 156.87 138.156 157.676 138.69L162.553 141.92L163.263 140.848L164.396 141.598L163.686 142.67L165.77 144.05L164.859 145.425L162.776 144.044L161.345 146.204L160.213 145.454L161.643 143.294Z" fill="#333333"/>
<path d="M148.338 146.445C148.546 146.21 148.803 146.082 149.11 146.063C149.417 146.045 149.688 146.139 149.923 146.347C150.158 146.555 150.285 146.812 150.304 147.119C150.323 147.426 150.229 147.697 150.021 147.932C149.821 148.158 149.572 148.276 149.273 148.286C148.966 148.305 148.695 148.211 148.46 148.003C148.225 147.795 148.098 147.538 148.079 147.231C148.052 146.933 148.138 146.671 148.338 146.445Z" fill="#333333"/>
<path d="M147.134 159.266C147.237 159.912 147.158 160.582 146.895 161.276C146.631 161.986 146.166 162.611 145.499 163.15C144.814 163.704 144.061 164.041 143.242 164.16C142.413 164.287 141.596 164.179 140.79 163.836C139.993 163.503 139.275 162.942 138.638 162.153C138.007 161.374 137.605 160.55 137.431 159.682C137.257 158.813 137.315 157.982 137.605 157.189C137.885 156.403 138.368 155.733 139.054 155.178C139.711 154.647 140.411 154.322 141.153 154.203C141.894 154.101 142.574 154.164 143.194 154.393L139.083 149.309L140.364 148.272L149.566 159.652L148.284 160.689L147.134 159.266ZM139.947 161.094C140.418 161.676 140.945 162.088 141.529 162.331C142.113 162.573 142.698 162.643 143.284 162.542C143.861 162.449 144.388 162.208 144.867 161.821C145.337 161.441 145.679 160.971 145.892 160.41C146.105 159.866 146.154 159.274 146.042 158.635C145.927 158.014 145.638 157.417 145.175 156.844C144.704 156.262 144.173 155.845 143.582 155.593C142.988 155.359 142.4 155.284 141.816 155.368C141.23 155.469 140.702 155.709 140.232 156.089C139.754 156.476 139.408 156.942 139.196 157.486C138.982 158.047 138.932 158.639 139.047 159.26C139.169 159.891 139.469 160.503 139.947 161.094Z" fill="#333333"/>
<path d="M139.869 171.182L132.674 159.874L134.065 158.989L141.26 170.297L139.869 171.182Z" fill="#333333"/>
<path d="M133.307 165.545C133.753 166.456 133.96 167.343 133.926 168.207C133.898 169.082 133.657 169.865 133.203 170.559C132.739 171.257 132.111 171.8 131.32 172.188C130.539 172.571 129.779 172.736 129.04 172.681C128.3 172.627 127.665 172.414 127.133 172.043L127.931 173.669L126.435 174.403L122.064 165.492L123.56 164.758L124.374 166.416C124.411 165.753 124.637 165.104 125.053 164.47C125.462 163.852 126.052 163.354 126.822 162.976C127.613 162.588 128.424 162.433 129.256 162.509C130.087 162.586 130.859 162.886 131.573 163.41C132.288 163.934 132.865 164.646 133.307 165.545ZM125.753 169.23C126.083 169.902 126.506 170.421 127.021 170.787C127.537 171.152 128.092 171.351 128.685 171.383C129.274 171.43 129.844 171.319 130.397 171.047C130.95 170.776 131.39 170.399 131.718 169.915C132.046 169.432 132.223 168.874 132.249 168.243C132.276 167.611 132.124 166.959 131.794 166.287C131.459 165.604 131.031 165.074 130.51 164.698C129.995 164.332 129.443 164.125 128.855 164.077C128.272 164.041 127.704 164.158 127.151 164.429C126.598 164.7 126.158 165.077 125.83 165.561C125.497 166.061 125.317 166.626 125.291 167.258C125.269 167.9 125.424 168.558 125.753 169.23Z" fill="#333333"/>
<path d="M118.672 177.25C117.518 177.605 116.475 177.541 115.543 177.057C114.614 176.585 113.947 175.691 113.542 174.376L111.82 168.785L113.378 168.305L115.031 173.671C115.322 174.617 115.781 175.266 116.407 175.616C117.036 175.978 117.76 176.033 118.58 175.781C119.411 175.525 119.994 175.061 120.331 174.389C120.655 173.72 120.665 172.89 120.359 171.897L118.744 166.652L120.32 166.167L123.24 175.653L121.665 176.138L121.25 174.788C121.087 175.369 120.781 175.874 120.332 176.302C119.872 176.735 119.318 177.051 118.672 177.25Z" fill="#333333"/>
<path d="M108.701 178.039L107.715 172.272C107.634 171.796 107.475 171.474 107.238 171.307C107.003 171.151 106.636 171.116 106.136 171.201L104.94 171.406L104.705 170.031L106.168 169.781C107.073 169.626 107.787 169.718 108.311 170.057C108.834 170.397 109.177 171.042 109.34 171.994L110.326 177.761L111.594 177.544L111.822 178.883L110.555 179.1L110.976 181.564L109.352 181.841L108.93 179.378L106.377 179.814L106.148 178.475L108.701 178.039Z" fill="#333333"/>
<path d="M97.3598 170.499C97.6736 170.489 97.9425 170.59 98.1664 170.8C98.3904 171.011 98.5072 171.273 98.5169 171.587C98.5266 171.9 98.4262 172.169 98.2156 172.393C98.0051 172.617 97.7429 172.734 97.4291 172.744C97.1274 172.753 96.8706 172.652 96.6587 172.441C96.4348 172.231 96.318 171.969 96.3083 171.655C96.2986 171.341 96.399 171.072 96.6095 170.848C96.808 170.625 97.0581 170.508 97.3598 170.499Z" fill="#333333"/>
<path d="M86.8802 178.389C86.4789 178.906 85.9355 179.305 85.2499 179.588C84.5507 179.88 83.7766 179.967 82.9275 179.849C82.0545 179.727 81.2945 179.407 80.6473 178.89C79.9882 178.372 79.5088 177.701 79.209 176.879C78.9075 176.069 78.8269 175.162 78.9671 174.157C79.1057 173.164 79.4325 172.308 79.9476 171.587C80.4627 170.867 81.109 170.341 81.8866 170.011C82.6523 169.679 83.4716 169.574 84.3446 169.696C85.1817 169.812 85.8973 170.101 86.4913 170.562C87.0717 171.033 87.4901 171.573 87.7465 172.182L88.6504 165.706L90.2827 165.934L88.2598 180.428L86.6274 180.2L86.8802 178.389ZM80.6354 174.39C80.5319 175.131 80.5912 175.798 80.8134 176.39C81.0356 176.982 81.3838 177.457 81.858 177.816C82.3202 178.173 82.8562 178.394 83.4661 178.479C84.0641 178.562 84.641 178.491 85.197 178.263C85.7393 178.047 86.2052 177.679 86.5945 177.16C86.9703 176.652 87.2091 176.033 87.3109 175.303C87.4144 174.562 87.3559 173.889 87.1353 173.285C86.9012 172.692 86.5538 172.211 86.0933 171.842C85.6191 171.483 85.0831 171.262 84.4851 171.178C83.8752 171.093 83.2991 171.159 82.7568 171.376C82.2008 171.603 81.735 171.971 81.3592 172.479C80.9818 173 80.7405 173.636 80.6354 174.39Z" fill="#333333"/>
<path d="M73.2805 181.239L76.5893 168.251L78.1865 168.658L74.8777 181.646L73.2805 181.239Z" fill="#333333"/>
<path d="M72.8941 172.585C72.5342 173.534 72.0274 174.291 71.3736 174.856C70.7156 175.433 69.9786 175.793 69.1626 175.935C68.3353 176.073 67.5096 175.986 66.6855 175.673C65.8727 175.364 65.2335 174.922 64.768 174.345C64.3025 173.768 64.0237 173.158 63.9315 172.516L63.2889 174.209L61.731 173.618L65.2527 164.339L66.8106 164.93L66.1551 166.657C66.6655 166.231 67.2941 165.953 68.0408 165.823C68.772 165.7 69.5383 165.791 70.3398 166.095C71.1639 166.408 71.8319 166.894 72.3437 167.553C72.8555 168.212 73.1641 168.981 73.2695 169.861C73.3748 170.74 73.2497 171.648 72.8941 172.585ZM65.0433 169.587C64.7777 170.286 64.6874 170.95 64.7726 171.576C64.8577 172.202 65.0916 172.743 65.4742 173.198C65.8413 173.661 66.3126 174.001 66.8884 174.219C67.4641 174.438 68.0405 174.502 68.6174 174.411C69.1944 174.32 69.7225 174.068 70.2019 173.656C70.6812 173.244 71.0536 172.688 71.3193 171.988C71.5892 171.276 71.6837 170.602 71.6028 169.964C71.5177 169.338 71.2916 168.794 70.9245 168.331C70.5532 167.881 70.0797 167.546 69.504 167.327C68.9282 167.109 68.3519 167.045 67.7749 167.136C67.1824 167.234 66.6464 167.489 66.1671 167.901C65.6835 168.325 65.3089 168.887 65.0433 169.587Z" fill="#333333"/>
<path d="M54.3446 169.881C53.2982 169.278 52.6345 168.471 52.3534 167.459C52.0662 166.458 52.2661 165.361 52.9531 164.168L55.8728 159.098L57.2854 159.912L54.4832 164.777C53.989 165.635 53.8269 166.413 53.9968 167.11C54.1606 167.817 54.614 168.385 55.3569 168.813C56.1103 169.247 56.8475 169.358 57.5686 169.146C58.2793 168.928 58.8937 168.37 59.412 167.47L62.1509 162.714L63.5791 163.537L58.6256 172.138L57.1973 171.315L57.9024 170.091C57.3668 170.368 56.789 170.488 56.1691 170.451C55.5387 170.409 54.9305 170.219 54.3446 169.881Z" fill="#333333"/>
<path d="M47.0077 163.176L50.5349 158.509C50.8261 158.123 50.9517 157.787 50.9117 157.499C50.8644 157.221 50.6384 156.93 50.2338 156.624L49.2657 155.892L50.1065 154.78L51.2914 155.675C52.0235 156.228 52.4452 156.812 52.5565 157.426C52.6678 158.039 52.4322 158.732 51.8498 159.502L48.3227 164.17L49.3486 164.945L48.5296 166.029L47.5037 165.253L45.9967 167.247L44.6818 166.254L46.1887 164.26L44.1224 162.698L44.9414 161.614L47.0077 163.176Z" fill="#333333"/>
<path d="M44.7359 149.734C44.9579 149.956 45.0689 150.221 45.0689 150.528C45.0689 150.836 44.9579 151.1 44.7359 151.322C44.5139 151.544 44.2492 151.655 43.9419 151.655C43.6345 151.655 43.3698 151.544 43.1478 151.322C42.9344 151.109 42.8319 150.853 42.8404 150.554C42.8404 150.246 42.9514 149.982 43.1734 149.76C43.3954 149.538 43.6601 149.427 43.9675 149.427C44.2663 149.418 44.5224 149.521 44.7359 149.734Z" fill="#333333"/>
<path d="M32.0427 147.776C31.3912 147.839 30.7276 147.718 30.0517 147.413C29.359 147.106 28.7643 146.603 28.2677 145.904C27.757 145.185 27.4675 144.413 27.3992 143.588C27.324 142.753 27.4824 141.944 27.8744 141.161C28.2566 140.386 28.861 139.705 29.6878 139.117C30.5046 138.536 31.3518 138.186 32.2294 138.066C33.107 137.946 33.9328 138.055 34.7068 138.394C35.4739 138.723 36.1127 139.246 36.6234 139.965C37.1131 140.654 37.3942 141.372 37.4669 142.121C37.5227 142.866 37.4173 143.541 37.1506 144.145L42.4799 140.357L43.4348 141.701L31.5065 150.179L30.5516 148.836L32.0427 147.776ZM30.6636 140.49C30.0534 140.924 29.6094 141.424 29.3316 141.992C29.0537 142.56 28.9471 143.14 29.0117 143.731C29.0693 144.312 29.2765 144.853 29.6333 145.355C29.9831 145.847 30.4314 146.218 30.9782 146.466C31.5082 146.711 32.0955 146.798 32.7399 146.725C33.3675 146.649 33.9815 146.398 34.5819 145.971C35.1921 145.537 35.641 145.033 35.9287 144.458C36.1995 143.881 36.3111 143.298 36.2633 142.709C36.1987 142.118 35.9915 141.577 35.6417 141.085C35.285 140.583 34.8416 140.209 34.3116 139.964C33.7647 139.715 33.1775 139.629 32.5499 139.705C31.9124 139.787 31.2837 140.049 30.6636 140.49Z" fill="#333333"/>
<path d="M20.5748 139.743L32.3106 133.27L33.1067 134.713L21.3709 141.187L20.5748 139.743Z" fill="#333333"/>
<path d="M26.6098 133.553C25.6727 133.941 24.7742 134.091 23.9143 134.003C23.0433 133.919 22.2762 133.629 21.6131 133.133C20.9455 132.625 20.443 131.964 20.1057 131.15C19.773 130.346 19.6571 129.578 19.7581 128.843C19.859 128.109 20.1116 127.488 20.5158 126.981L18.8424 127.674L18.2048 126.134L27.3748 122.336L28.0124 123.876L26.3056 124.582C26.9658 124.662 27.5992 124.929 28.2056 125.383C28.7964 125.831 29.2557 126.451 29.5838 127.244C29.9211 128.058 30.0252 128.877 29.8962 129.702C29.7673 130.526 29.4187 131.278 28.8507 131.958C28.2827 132.638 27.5357 133.169 26.6098 133.553ZM23.4107 125.782C22.719 126.068 22.1744 126.457 21.7767 126.948C21.3791 127.44 21.1457 127.981 21.0766 128.571C20.9918 129.155 21.0672 129.732 21.3029 130.301C21.5385 130.87 21.8872 131.333 22.349 131.691C22.8108 132.048 23.3561 132.26 23.9847 132.327C24.6134 132.393 25.2736 132.283 25.9652 131.997C26.668 131.705 27.2239 131.312 27.6327 130.816C28.0303 130.324 28.2715 129.787 28.3564 129.203C28.4301 128.623 28.3491 128.049 28.1134 127.48C27.8778 126.911 27.5291 126.448 27.0673 126.09C26.5897 125.726 26.0366 125.511 25.4079 125.444C24.7681 125.383 24.1023 125.495 23.4107 125.782Z" fill="#333333"/>
<path d="M15.8691 118.289C15.5889 117.115 15.7201 116.078 16.2628 115.179C16.7937 114.283 17.7286 113.675 19.0676 113.355L24.758 111.997L25.1363 113.583L19.6749 114.886C18.7118 115.116 18.0352 115.532 17.6451 116.134C17.2432 116.739 17.1418 117.458 17.3408 118.292C17.5426 119.138 17.968 119.75 18.617 120.129C19.2633 120.496 20.0914 120.559 21.1015 120.318L26.4396 119.044L26.8221 120.648L17.1678 122.951L16.7852 121.348L18.1594 121.02C17.5904 120.821 17.1064 120.483 16.7073 120.007C16.3055 119.52 16.0261 118.947 15.8691 118.289Z" fill="#333333"/>
<path d="M15.7085 108.398L21.5246 107.768C22.0048 107.716 22.3359 107.576 22.5178 107.35C22.6878 107.125 22.7454 106.761 22.6908 106.257L22.5601 105.05L23.9466 104.9L24.1066 106.377C24.2055 107.289 24.0695 107.996 23.6988 108.498C23.3281 108.999 22.6625 109.302 21.7022 109.406L15.886 110.036L16.0246 111.315L14.6741 111.461L14.5355 110.183L12.0506 110.452L11.873 108.813L14.358 108.544L14.0789 105.969L15.4294 105.823L15.7085 108.398Z" fill="#333333"/>
</svg>
